<svg xmlns="http://www.w3.org/2000/svg" width="50" height="50" style=""><rect id="backgroundrect" width="100%" height="100%" x="0" y="0" fill="none" stroke="none"/><defs><linearGradient id="a" x1="0.25" x2="0.75" y1="0.06701389948527019" y2="0.9329861534966363"><stop offset="0" stop-color="#6b7280"/><stop offset=".5" stop-color="#6b7280"/><stop offset="1" stop-color="#374151"/></linearGradient></defs><g class="currentLayer" style=""><title>Layer 1</title><circle cx="256" cy="256" r="144" fill="url(#a)" stroke="#e5e7eb" stroke-miterlimit="10" stroke-width="12" id="svg_1" class="" transform="translate(0.746269, -0.746269) translate(-0.746269, 0.746269) translate(-130.597, -41.791) translate(123.881, 36.5672) translate(0.746269, 2.98507) translate(20.8955, 1.49254) translate(-124.627, -105.97) translate(112, 112) scale(0.157857, 0.144901) translate(-112, -112)"/><path fill="#9ca3af" d="M25.05653821542503,11.016169785434643 v-1.5057022559930624 h0.7073963665632931 v2.606023135372609 h-0.7227745484451031 l-0.9688254585540721,-1.5057022559930624 v1.5057022559930624 h-0.7073963665632931 v-2.606023135372609 h0.7227745484451031 zm15.885661883910418,15.303146967160261 v0.4777709081516463 h1.5070618244174467 v0.5791162523050254 h-2.2298363728625463 v-2.606023135372609 H42.40312737810747 v0.5791162523050254 h-1.460927278772015 v0.43433718922877057 h1.2763890961902866 v0.5501604396897745 zm-16.362385522246548,16.7943713168457 a1.2917672780720957,1.2161441298405513 0 0 1 -0.8304218216177776,-0.23164650092201014 a0.89193454914502,0.8397185658422857 0 0 1 -0.3075636376362143,-0.6370278775355274 h0.6766400027996705 c0,0.23164650092201014 0.1691600006999178,0.3474697513830155 0.4767236383361324,0.3474697513830155 c0.27680727387259296,0 0.39983272892707894,-0.0868674378457538 0.39983272892707894,-0.24612440722963647 a0.19991636446353958,0.18821278199913377 0 0 0 -0.06151272752724285,-0.14477906307625626 a0.7073963665632931,0.6659836901507786 0 0 0 -0.2460509101089712,-0.10134534415337974 l-0.5228581839815643,-0.10134534415337974 c-0.4459672745725101,-0.10134534415337974 -0.6766400027996705,-0.3474697513830155 -0.6766400027996705,-0.7094174090736555 a0.7689090940905351,0.7238953153812805 0 0 1 0.26142909199078207,-0.5646383459973995 a1.1533636411358013,1.0858429730719221 0 0 1 0.7842872759723459,-0.21716859461438506 a1.2302545505448534,1.158232504610048 0 0 1 0.7689090940905351,0.21716859461438506 a0.799665457854157,0.7528511279965326 0 0 1 0.3075636376362143,0.5791162523050254 h-0.6612618209178595 c-0.030756363763621394,-0.2026906883067585 -0.15378181881810726,-0.2895581261525128 -0.4152109108088895,-0.2895581261525128 a0.4459672745725101,0.4198592829211436 0 0 0 -0.2460509101089712,0.05791162523050273 a0.19991636446353958,0.18821278199913377 0 0 0 -0.09226909129086446,0.14477906307625626 c0,0.11582325046100528 0.0768909094090536,0.18821278199913377 0.2460509101089712,0.23164650092201014 l0.5382363658633744,0.11582325046100528 q0.7227745484451031,0.1592569693838822 0.7227745484451031,0.7383732216889083 a0.7535309122087247,0.7094174090736555 0 0 1 -0.3075636376362143,0.5935941586126481 a1.3071454599539076,1.2306220361481766 0 0 1 -0.8150436397359688,0.21716859461438506 zM9.217010877160043,25.928413282289014 l0.3075636376362143,-1.158232504610048 h0.7227745484451031 l-0.799665457854157,2.606023135372609 h-0.6920181846814825 l-0.38445454704526805,-1.6649592253769443 l-0.3536981832816466,1.6649592253769443 h-0.7073963665632931 l-0.799665457854157,-2.606023135372609 h0.7227745484451031 l0.3075636376362143,1.158232504610048 l0.13840363693629668,0.6080720649202755 l0.10764727317267499,-0.6225499712279031 l0.26142909199078207,-1.1437545983024224 h0.6766400027996705 l0.27680727387259296,1.158232504610048 l0.09226909129086446,0.5935941586126481 z" id="svg_2" class=""/><g id="svg_3" class=""><path fill="#ef4444" d="m25.029859465956633,12.298517672052576 l-4.223881238441251,13.850749692353084 h8.447762476882502 l-4.223881238441251,-13.850749692353084 z" id="svg_4"/><path fill="#fff" d="m20.805978227515382,26.14926736440566 l4.223881238441251,13.850749692353084 l4.223881238441251,-13.850749692353084 h-8.447762476882502 z" id="svg_5"/><animateTransform additive="sum" attributeName="transform" calcMode="spline" dur="2s" keySplines=".42, 0, .58, 1; .42, 0, .58, 1" repeatCount="indefinite" type="rotate" values="-6 25 25; 6 25 25; -6 25 25"/></g></g></svg>