<svg xmlns="http://www.w3.org/2000/svg" width="120" height="120"><rect id="backgroundrect" width="100%" height="100%" x="0" y="0" fill="none" stroke="none" style="" class=""/><defs><linearGradient id="a" x1="0.25" x2="0.75" y1="0.06701389948527019" y2="0.9329861534966363"><stop offset="0" stop-color="#6b7280"/><stop offset=".5" stop-color="#6b7280"/><stop offset="1" stop-color="#374151"/></linearGradient></defs><g class="currentLayer" style=""><title>Layer 1</title><circle cx="256" cy="256" r="144" fill="url(#a)" stroke="#e5e7eb" stroke-miterlimit="10" stroke-width="12" id="svg_1" class="" transform="translate(-1.47059) translate(2.20588, -0.735294) translate(-8.08823, -5.14706) translate(-100.735, -102.941) translate(0, 0.735294) translate(112, 112) scale(0.425551, 0.402574) translate(-112, -112) translate(112, 112) scale(0.864685, 0.85192) translate(-112, -112) translate(112, 112) scale(1.05872, 1.11489) translate(-112, -112)"/><path fill="#9ca3af" d="M61.44080308173051,15.0227437891938 v-4.305084676581498 h1.9369577624180114 v7.451108094083361 h-1.9790655398618813 l-2.652789978963799,-4.305084676581498 v4.305084676581498 h-1.9369577624180114 v-7.451108094083361 h1.9790655398618813 zm43.49733409951753,43.75456253025617 v1.3660364839152832 h4.126562189499244 v1.6558017986851947 h-6.105627729361124 v-7.451108094083361 H108.93837603841565 v1.6558017986851947 h-4.000238857167632 v1.2418513490138938 h3.4949455278411947 v1.5730117087509319 zm-44.802675200277484,48.01825216187055 a3.5370533052850663,3.4771837772389023 0 0 1 -2.2738199819689706,-0.6623207194740793 a2.4422510917444495,2.4009126080935284 0 0 1 -0.8421555488773981,-1.821381978553711 h1.8527422075302722 c0,0.6623207194740793 0.4631855518825689,0.9934810792111152 1.3053411007599651,0.9934810792111152 c0.757939993989657,0 1.0948022135406157,-0.2483702698027794 1.0948022135406157,-0.7037157644412074 a0.5474011067703088,0.5381355845726875 0 0 0 -0.16843110977547981,-0.4139504496712983 a1.9369577624180114,1.9041720684879704 0 0 0 -0.6737244391019187,-0.28976531476990885 l-1.431664433091574,-0.28976531476990885 c-1.2211255458722252,-0.28976531476990885 -1.8527422075302722,-0.9934810792111152 -1.8527422075302722,-2.02835720338936 a2.1053888721934904,2.0697522483564885 0 0 1 0.715832216545788,-1.6144067537180615 a3.158083308290236,3.104628372534734 0 0 1 2.1474966496373606,-0.6209256745069492 a3.3686221955095856,3.3116035973703832 0 0 1 2.1053888721934904,0.6209256745069492 a2.189604427081231,2.152542338290749 0 0 1 0.8421555488773981,1.6558017986851947 h-1.8106344300864041 c-0.08421555488774009,-0.5795306295398176 -0.4210777744386988,-0.8279008993425979 -1.1369099909844853,-0.8279008993425979 a1.2211255458722252,1.2004563040467642 0 0 0 -0.6737244391019187,0.1655801798685194 a0.5474011067703088,0.5381355845726875 0 0 0 -0.2526466646632194,0.4139504496712983 c0,0.3311603597370395 0.21053888721934938,0.5381355845726875 0.6737244391019187,0.6623207194740793 l1.4737722105354436,0.3311603597370395 q1.9790655398618813,0.455345494638429 1.9790655398618813,2.111147293323619 a2.063281094749622,2.02835720338936 0 0 1 -0.8421555488773981,1.6971968436523226 a3.5791610827289353,3.518578822206032 0 0 1 -2.2317122045251003,0.6209256745069492 zM18.069792314544586,57.65964010533748 l0.8421555488773981,-3.3116035973703832 h1.9790655398618813 l-2.189604427081231,7.451108094083361 h-1.8948499849741425 l-1.0526944360967452,-4.760430171219926 l-0.9684788812090054,4.760430171219926 h-1.9369577624180114 l-2.189604427081231,-7.451108094083361 h1.9790655398618813 l0.8421555488773981,3.3116035973703832 l0.37896999699482947,1.7385918886194518 l0.29475444210709006,-1.7799869335865814 l0.715832216545788,-3.270208552403254 h1.8527422075302722 l0.757939993989657,3.3116035973703832 l0.2526466646632194,1.6971968436523226 z" id="svg_2" class=""/><g id="svg_3" class=""><path fill="#ef4444" d="m60.77941118694807,24.205883547898267 l-11.132354095504578,35.10294304087203 h22.264708191009156 l-11.132354095504578,-35.10294304087203 z" id="svg_4"/><path fill="#fff" d="m49.64705709144349,59.308826588770295 l11.132354095504578,35.10294304087203 l11.132354095504578,-35.10294304087203 h-22.264708191009156 z" id="svg_5"/>
<animateTransform additive="sum" attributeName="transform" calcMode="spline" dur="2s" keySplines=".42, 0, .58, 1; .42, 0, .58, 1" repeatCount="indefinite" type="rotate" values="0 65 65; 0 65 65; 0 65 65"/></g></g></svg>