<svg xmlns="http://www.w3.org/2000/svg" xmlns:xlink="http://www.w3.org/1999/xlink" width="215.9569378240825" height="248.69856476857706" style=""><rect id="backgroundrect" width="100%" height="100%" x="0" y="0" fill="none" stroke="none" class="selected" style=""/>
    <defs>
        <linearGradient id="a" x1="0.08031249791383743" y1="0.16154159605503082" x2="0.7636250257492065" y2="0.9506250023841858">
            <stop offset="0" stop-color="#000"/>
            <stop offset="0.45" stop-color="#3392d6"/>
            <stop offset="1" stop-color="#2477b2"/>
        </linearGradient>
        <symbol id="b" viewBox="0 0 164 245">
            <path d="M82,3.57c-48.7,72-80,117-80,160.75s35.79,79.25,80,79.25,80-35.47,80-79.25S130.7,75.54,82,3.57Z" stroke="#2885c7" stroke-miterlimit="10" stroke-width="4" fill="url(#a)" id="svg_1">
                <animateTransform attributeName="transform" additive="sum" type="scale" values="1 1; 1 .9; 1 1" dur="6s" calcMode="spline" keySplines=".42, 0, .58, 1; .42, 0, .58, 1" repeatCount="indefinite"/>
            </path>
        </symbol>
    </defs>
    
    
<g class="currentLayer" style=""><title>Layer 1</title><use width="164" height="245.57000732421875" xlink:href="#b" y="0.009994500316679478" x="43.899993896484375" id="svg_2" class=""/><path d="M86.24411272883415,113.14942330241203 q4.78,-4.47 13.69,-4.47 t13.68,4.47 q4.78,4.47 4.79,12.4 v8 q0,7.8 -4.79,12.22 t-13.68,4.41 q-8.9,0 -13.69,-4.41 T81.46411272883415,133.58942330241206 v-8 Q81.46411272883415,117.62942330241202 86.24411272883415,113.14942330241203 zM157.46411272883415,111.61942330241203 a2.79,2.79 0 0 1 -0.55,2.6100000000000003 l-53,73.24 a9.43,9.43 0 0 1 -2.84,2.83 a12.29,12.29 0 0 1 -4.62,0.56 h-4.34 c-1.33,0 -2.16,-0.37000000000000033 -2.5,-1.13 a2.7600000000000002,2.7600000000000002 0 0 1 0.6100000000000007,-2.72 l53,-73.35 a7,7 0 0 1 2.67,-2.66 a12.7,12.7 0 0 1 4.34,-0.51 h4.8900000000000015 C156.37411272883418,110.48942330241204 157.15411272883415,110.85942330241204 157.46411272883415,111.61942330241203 zm-57.52,7.59 q-7.68,0 -7.68,6.9 v6.79 q0,6.9 7.68,6.91 t7.68,-6.91 v-6.79 Q107.61411272883416,119.209423302412 99.93411272883415,119.209423302412 zm33.38,36.39 q4.78,-4.47 13.69,-4.47 t13.68,4.47 q4.78,4.47 4.78,12.4 v8 q0,7.8100000000000005 -4.78,12.23 T147.00411272883417,192.67942330241203 q-8.91,0 -13.69,-4.42 t-4.79,-12.23 v-8 Q128.52411272883415,160.06942330241202 133.31411272883417,155.59942330241205 zM147.00411272883417,161.67942330241203 q-7.68,0 -7.69,6.92 v6.67 q0,7 7.69,7 t7.67,-7 v-6.67 Q154.67411272883413,161.67942330241203 147.00411272883417,161.67942330241203 z" fill="#fff" id="svg_3" class=""/></g></svg>