<svg xmlns="http://www.w3.org/2000/svg" xmlns:xlink="http://www.w3.org/1999/xlink" width="167.8823595046997" height="285.52941608428955"><rect id="backgroundrect" width="100%" height="100%" x="0" y="0" fill="none" stroke="none" style="" class="selected"/>
	<defs>
		<linearGradient id="a" x1="Infinity" x2="Infinity" y1="Infinity" y2="Infinity">
			<stop offset="0" stop-color="#3392d6"/>
			<stop offset="0.5" stop-color="#3392d6"/>
			<stop offset="1" stop-color="#2477b2"/>
		</linearGradient>
		<symbol id="b" viewBox="0 0 164 245.6">
			<path fill="url(#a)" stroke="#2885c7" stroke-miterlimit="10" stroke-width="4" d="m82,3.6c-48.7,72 -80,117 -80,160.7s35.8,79.3 80,79.3s80,-35.5 80,-79.3s-31.3,-88.8 -80,-160.7z" id="svg_1">
				<animateTransform additive="sum" attributeName="transform" calcMode="spline" dur="6s" keySplines=".42, 0, .58, 1; .42, 0, .58, 1" repeatCount="indefinite" type="scale" values="1 1; 1 .9; 1 1"/>
			</path>
		</symbol>
	</defs>
	<g style="" class="currentLayer">
		<title>Layer 1</title>
		<use xlink:href="#b" width="164" height="245.60000610351562" y="1.0099899768829346" x="1.8999899625778198" id="svg_2"/>
		<path fill="#fff" d="m44.8,129.5q4.8,-4.5 13.7,-4.5t13.6,4.5q4.8,4.4 4.8,12.4l0,8q0,7.8 -4.8,12.2t-13.6,4.4q-9,0 -13.7,-4.4t-4.8,-12.2l0,-8q0,-8 4.8,-12.4zm71.2,-1.6a2.8,2.8 0 0 1 -0.6,2.6l-53,73.3a9.4,9.4 0 0 1 -2.8,2.8a12.3,12.3 0 0 1 -4.6,0.6l-4.4,0c-1.3,0 -2.1,-0.4 -2.5,-1.1a2.8,2.8 0 0 1 0.7,-2.8l53,-73.3a7,7 0 0 1 2.6,-2.7a12.7,12.7 0 0 1 4.4,-0.5l4.9,0c1.2,0 2,0.4 2.3,1.1zm-57.5,7.6q-7.7,0 -7.7,7l0,6.7q0,7 7.7,7t7.7,-7l0,-6.8q0,-6.9 -7.7,-6.9zm33.4,36.4q4.7,-4.5 13.7,-4.5t13.6,4.5q4.8,4.5 4.8,12.4l0,8q0,7.8 -4.8,12.2t-13.7,4.5q-8.9,0 -13.6,-4.4t-4.8,-12.3l0,-8q0,-8 4.8,-12.4zm13.6,6.1q-7.6,0 -7.6,7l0,6.6q0,7 7.6,7t7.7,-7l0,-6.7q0,-6.9 -7.7,-6.9z" id="svg_3"/>
	</g>
</svg>